<svg width="73" height="18" viewBox="0 0 73 18" fill="none" xmlns="http://www.w3.org/2000/svg">
<path d="M9.592 17.384C15.352 17.384 18.904 13.768 18.904 9.032C18.904 3.304 15.352 0.872 9.592 0.872C3.832 0.872 0.28 4.488 0.28 9.224C0.28 14.952 3.832 17.384 9.592 17.384ZM9.944 15.368C7.736 15.368 6.2 12.712 6.2 7.88C6.2 4.232 7.384 2.888 9.24 2.888C11.192 2.888 12.984 5.544 12.984 10.376C12.984 14.024 11.8 15.368 9.944 15.368ZM34.3315 17.032C35.5155 16.968 36.7635 16.936 37.6915 16.936C38.6515 16.936 40.3795 16.968 41.0515 17L41.4035 15.848C40.6995 15.496 39.8995 15.08 39.0995 14.472V1.448L38.9075 1.256C38.1715 1.288 36.8595 1.32 35.8355 1.32C34.8115 1.32 32.5715 1.256 31.5795 1.224L31.3875 2.376L33.2755 3.528V12.456C32.3475 13.288 31.3555 13.768 30.3635 13.768C29.0195 13.768 28.4115 12.808 28.4115 10.792V1.48L28.2195 1.256C27.3235 1.288 25.9155 1.32 24.5715 1.32C23.1955 1.32 21.8515 1.288 20.7315 1.224L20.5395 2.376L22.5875 3.848V11.688C22.5875 15.048 23.6115 17.384 27.8035 17.384C30.0435 17.384 32.5075 15.976 33.7555 13.672L34.1075 16.808L34.3315 17.032ZM52.7238 15.848C51.8918 15.464 51.1238 14.984 50.4198 14.472V6.984C51.2517 5.896 52.2438 5.192 53.0118 5.192L56.4998 6.216L56.7558 6.056L57.5238 1.192L57.3318 0.967999H55.7958C53.1398 0.967999 50.9318 2.952 49.5878 5.8L49.2998 5.736L49.9078 1.128L49.2038 0.872C46.9958 1.448 44.9478 1.896 42.6118 2.12V3.336L44.5958 4.2V14.728C44.0518 15.144 43.5078 15.528 42.8038 15.848L43.1558 17C44.6278 16.936 46.2278 16.904 47.6998 16.904C49.1718 16.904 50.9638 16.936 52.3718 17L52.7238 15.848ZM72.8668 12.52C72.8668 9.832 71.4268 8.68 67.9388 7.304C65.2188 6.248 64.6748 5.48 64.6748 4.424C64.6748 3.528 65.3148 2.888 67.2668 2.888C67.6508 2.888 68.0348 2.92 68.4188 2.984L70.3708 6.376H71.8428C71.9068 5.032 72.2268 3.176 72.5148 1.768L72.3868 1.48C70.9788 1.192 68.6428 0.872 66.1788 0.872C61.6028 0.872 58.8828 2.824 58.8828 5.736C58.8828 8.424 60.3228 9.576 63.8108 10.952C66.5308 12.008 67.0748 12.776 67.0748 13.832C67.0748 14.728 66.4348 15.368 64.4828 15.368C63.9068 15.368 63.2668 15.272 62.6588 15.144L60.7388 11.784H59.2668C59.2028 13.128 58.9148 14.92 58.5948 16.36L58.7548 16.68C60.0988 17.128 62.4988 17.384 64.9308 17.384C69.9228 17.384 72.8668 15.432 72.8668 12.52Z" fill="white"/>
</svg>
